<svg id="visual" viewBox="0 0 54 34" width="54" height="34" xmlns="http://www.w3.org/2000/svg" xmlns:xlink="http://www.w3.org/1999/xlink" version="1.1"><path d="M53 0L39 0L39 13L45 13L45 26L43 26L43 39L55 39L55 53L42 53L42 66L47 66L47 79L53 79L53 92L0 92L0 79L0 79L0 66L0 66L0 53L0 53L0 39L0 39L0 26L0 26L0 13L0 13L0 0L0 0Z" fill="#9900ff"></path><path d="M32 0L26 0L26 13L38 13L38 26L30 26L30 39L37 39L37 53L31 53L31 66L24 66L24 79L37 79L37 92L0 92L0 79L0 79L0 66L0 66L0 53L0 53L0 39L0 39L0 26L0 26L0 13L0 13L0 0L0 0Z" fill="#7700c6"></path><path d="M15 0L17 0L17 13L19 13L19 26L15 26L15 39L19 39L19 53L15 53L15 66L11 66L11 79L23 79L23 92L0 92L0 79L0 79L0 66L0 66L0 53L0 53L0 39L0 39L0 26L0 26L0 13L0 13L0 0L0 0Z" fill="#560090"></path>
    </svg>